<svg width="24" height="24" viewBox="0 0 24 24" fill="none" xmlns="http://www.w3.org/2000/svg">
<path d="M9 5C9 3.34315 10.3431 2 12 2C13.6569 2 15 3.34315 15 5C15 6.65685 13.6569 8 12 8C10.3431 8 9 6.65685 9 5Z" fill="#3C3C3C"/>
<path d="M7 12C7 10.3431 8.34315 9 10 9H14C15.6569 9 17 10.3431 17 12V15.4338C17 15.7851 16.8157 16.1106 16.5145 16.2913L14.5 17.5V21C14.5 21.5523 14.0523 22 13.5 22H10.5C9.94772 22 9.5 21.5523 9.5 21V17.5L7.4855 16.2913C7.1843 16.1106 7 15.7851 7 15.4338V12Z" fill="#3C3C3C"/>
</svg>
