<svg width="24" height="24" viewBox="0 0 24 24" fill="none" xmlns="http://www.w3.org/2000/svg">
<path d="M16 6C16 8.20914 14.2091 10 12 10C9.79087 10 8.00001 8.20914 8.00001 6C8.00001 3.79086 9.79087 2 12 2C14.2091 2 16 3.79086 16 6Z" fill="#3C3C3C"/>
<path d="M5.8909 9.99011C6.44865 9.37757 7.39736 9.33314 8.0099 9.89089C9.13843 10.9185 10.5234 11.5 12 11.5C13.4766 11.5 14.8616 10.9185 15.9901 9.89089C16.6027 9.33314 17.5514 9.37757 18.1091 9.99011C18.6669 10.6027 18.6224 11.5514 18.0099 12.1091C17.2459 12.8047 16.3788 13.3753 15.4351 13.7843L16.6022 19.9113C16.8087 20.9955 15.9775 22 14.8738 22C14.0664 22 13.3626 21.4505 13.1668 20.6673L12.6213 18.4851C12.55 18.2 12.2939 18 12 18C11.7062 18 11.45 18.2 11.3787 18.4851L10.8332 20.6673C10.6374 21.4505 9.93362 22 9.12626 22C8.02252 22 7.19133 20.9955 7.39786 19.9113L8.5649 13.7843C7.6212 13.3753 6.75407 12.8047 5.99012 12.1091C5.37758 11.5514 5.33315 10.6027 5.8909 9.99011Z" fill="#3C3C3C"/>
</svg>
